<svg xmlns="http://www.w3.org/2000/svg" width="923.353" height="367.462" viewBox="0 0 923.353 367.462">
  <g id="Group_269" data-name="Group 269" transform="translate(-27.924 -220.2)" opacity="0.061">
    <path id="Path_1" data-name="Path 1" d="M489.345,228.882v14.994H232.39c46.643,29.064,73.444,70.3,72.865,126.567-.575,56.021-27.9,96.8-75.652,124.954h215.24v15.041h-5.1q-130.509,0-261.018,0a238.982,238.982,0,0,1-27.834-1.142,137.784,137.784,0,0,1-63.07-23.909c-27.974-19.294-46.2-45.948-54.937-79.072-21.313-80.8,28.464-157.621,104.2-174.683a133.92,133.92,0,0,1,37.873-3.054c4.051.251,8.12.293,12.18.3q148.392.023,296.789.011ZM166.219,247.323C108.1,245.564,46.449,294.97,46.629,369.885c.164,68.6,54.715,121.414,118.84,121.516,73.624.115,121.476-61.178,121.456-121.951C286.9,301.087,230.087,245.819,166.219,247.323Z" transform="translate(0 9.913)" fill="#b2ba91"/>
    <path id="Path_2" data-name="Path 2" d="M313.238,367.124c-8.586,4.249-16.544,8.089-24.416,12.107-10.6,5.408-21.077,11.07-31.707,16.413-15.345,7.714-30.568,15.683-44.707,25.555a198.488,198.488,0,0,0-21.444,17.217c-12.249,11.376-25.859,4.946-33.131-3.571a5.683,5.683,0,0,1-.464-7.42,74.708,74.708,0,0,1,5.786-7.7A239.033,239.033,0,0,0,189.612,383.5c-1.3.431-2.616.84-3.911,1.3-6.585,2.339-12.988,2.15-19.1-1.541a13.987,13.987,0,0,1-6.767-8.726c-1.222-4.893.691-9.568,5.064-12.926,2.026-1.555,4.7-2.088,6.121-4.717.475-.882,2.47-.993,3.807-1.273,9.706-2.028,19.421-4.007,29.133-6a66.453,66.453,0,0,1,7.289-1.439,7.8,7.8,0,0,0,6.285-4.067c3.483-5.435,7.165-10.736,10.892-16A338.293,338.293,0,0,0,252.3,288.931a265.648,265.648,0,0,1,14.881-24.942c6.821-10.194,16.722-15.8,28.551-17.57,8.082-1.21,15.565.973,22.446,5.388a6.419,6.419,0,0,1,2.2,1.89c2.288,3.989,5.564,7.3,7.045,11.869a51.6,51.6,0,0,1,2.325,15.865c.056,14.294-.02,28.587-.042,42.881,0,1.672,0,3.345,0,4.884,2.521,1.208,4.7,2.081,6.716,3.252,6.65,3.865,8.411,10.519,4.8,17.368a16.122,16.122,0,0,1-7.918,7.718c-1.384.6-2.718,1.313-4.327,2.1-.167,6.023-.315,12.085-.5,18.146-.529,16.989.238,33.941,1.059,50.906a442.018,442.018,0,0,0,5.071,48.065,174.166,174.166,0,0,0,21.353,61.091c3.374,5.779,2.292,11.036-3.169,14.7-6.53,4.384-13.468,4.564-20.422,1.091-3.1-1.55-4.962-4.289-6.032-7.711-3.685-11.76-5.533-23.871-7.389-36.049-3.427-22.495-3.214-45.118-3.558-67.748-.329-21.788-.9-43.572-1.413-65.356C313.9,373.816,313.531,370.873,313.238,367.124ZM247.88,339.757l.7.828q30.137-5.714,60.247-11.42a7.673,7.673,0,0,0,.144-1.552c-1.157-7.4-2.063-14.85-3.585-22.168-1.579-7.587-3.669-15.07-5.739-22.539-.573-2.068-1.879-3.92-3.185-6.55C278.083,296.411,264.74,319.506,247.88,339.757Zm-33.866,52.416c9.115-2.521,53.717-27.1,56.9-30.586-4.244.868-8.282,1.615-12.284,2.525-9.641,2.2-19.276,4.431-28.887,6.763-1.4.34-3.18.946-3.889,2.041C221.761,379.233,217.932,385.734,214.014,392.173Z" transform="translate(156.634 31.61)" fill="#b2ba91"/>
    <path id="Path_3" data-name="Path 3" d="M399.3,343.768c.02-1.093-.011-2.188-.018-3.283-.136-20.18-.56-40.365-.3-60.54.084-6.49.4-12.977.8-19.465a41.6,41.6,0,0,0-1.823-10.017,7.3,7.3,0,0,0-7.345-3.6,9.989,9.989,0,0,0-6.51,3c-.038.044-.078.084-.113.129v0c-1.817,2.254-2.958,4.857-2.636,6.9a12.158,12.158,0,0,1-1.539,8.309c.815,7.176,1.617,14.352,2.356,21.537,1.415,13.775,2.663,27.569,3.942,41.362.364,3.92.586,7.856.884,11.929a9.271,9.271,0,0,1-1.424-.275c-10-4.127-19.96-2.976-29.819.449-9.748,3.383-18.481,8.782-26.6,15.361-6.25,5.062-11.547,11.181-17.262,16.842-4.773,4.726-8.338,10.37-11.76,16.158-5.079,8.6-4.129,21.24,3.882,28.94a11,11,0,0,0,9.142,3.423,47.082,47.082,0,0,0,16.324-4.538c12.507-6.265,24.944-12.689,37.369-19.134,5.2-2.7,7.378-7.56,6.366-13.588-1.188-7.089-6.234-10.028-12.453-7.149-3.8,1.761-7.591,3.578-11.274,5.6-7.538,4.129-15.771,5.95-24.256,8.729a11.174,11.174,0,0,1,.808-1.715c5.877-7.449,12.4-14.09,20.789-18.392,6.614-3.389,13.439-5.857,20.949-5.4,3.48.211,6.872.7,9.966,2.639a4.525,4.525,0,0,1,2.432,4c.4,7.116,3.456,12.236,10.321,14.226.2.058.34.306.686.637.7,8.655,1.468,17.488,2.1,26.332.158,2.179.551,4.04,2.47,5.135,2.328-2.627,4.375-5.088,6.59-7.367a3.536,3.536,0,0,0,.962-3.238c-.775-7.369-1.43-14.752-2.206-22.121a8.489,8.489,0,0,1,1.066-5.524A22.644,22.644,0,0,0,404.43,374c1.53-6.377-.173-12.424-2.787-17.979A26.6,26.6,0,0,1,399.3,343.768ZM319.2,404.755l-.957-.333q.453-1.629.911-3.26l.609.138Q319.476,403.028,319.2,404.755Z" transform="translate(328.542 32.527)" fill="#b2ba91"/>
    <path id="Path_4" data-name="Path 4" d="M275.032,348.982c1.83-1.339,3.183-2.194,4.382-3.234,6.3-5.442,11.176-12.18,15.558-19.167,6.621-10.554,12.633-21.5,18.919-32.278a57.4,57.4,0,0,1,4.369-7.138c3.227-4.027,7.152-4.877,11.789-2.7,2.952,1.386,5.75,3.118,8.582,4.76a2.808,2.808,0,0,1,1.188,1.375c1.268,3.734,2.787,7.378,2.112,11.545-1.643,10.141-1.846,20.38-1.775,30.634a48.65,48.65,0,0,0,4.413,20.071,24.032,24.032,0,0,1,1.743,5.433c1.559,8.22-6.807,16.642-16.347,13.584a10.278,10.278,0,0,1-6.583-6.4,54.96,54.96,0,0,1-4.151-19.778c-.042-4.482.04-8.966.04-13.448,0-.968-.109-1.937-.213-3.649-1.077,1.424-1.77,2.259-2.376,3.154-4.842,7.167-9.481,14.485-14.561,21.473-3.951,5.437-8.3,10.594-12.735,15.634-4.247,4.826-10.092,6.883-16.151,7.185-5.3.262-9.948-2.305-13.479-6.556a32.342,32.342,0,0,1-7.394-18.559c-.553-7.385-.258-14.832-.433-22.248-.142-6.015-.4-12.025-.673-18.032a7,7,0,0,0-2.383-4.977c-4.529-4.3-5.277-10.952-2.137-16.511a12.741,12.741,0,0,1,15.121-6.248c7.1,2.088,11.154,6.812,12.02,15.869.653,6.825.007,13.8-.3,20.7-.353,7.938-.893,15.862.393,23.763C274.235,344.869,274.57,346.495,275.032,348.982Z" transform="translate(264.841 75.864)" fill="#b2ba91"/>
    <path id="Path_5" data-name="Path 5" d="M422.082,288.1c3.378-5.972,8.322-6.119,13.47-5.086,6.528,1.31,13.164,2.094,19.376,5.091,8.333,4.02,15.09,9.975,17.866,20.447a37.259,37.259,0,0,1,.413,15.425c-2,13.008-9.137,21.737-17.049,30.044a62.035,62.035,0,0,1-28.977,17.681,31.539,31.539,0,0,1-23.831-2.916c-5.761-3.063-10.023-8.187-12.913-14.768a52.542,52.542,0,0,1-4.606-22.75c.275-10.843,1-21.579,4.589-31.763a55.508,55.508,0,0,1,9.084-15.994c5.348-6.765,15.676-5.935,20.691,1.419C420.814,285.844,421.333,286.841,422.082,288.1Zm-1.122,10.816c-1.553,1.355-2.63,2.7-3.958,3.374-3.1,1.588-4.908,4.449-6.245,7.816a55.782,55.782,0,0,0-4.1,25.071c.682,9,5.108,16.666,14.983,16.007a16.679,16.679,0,0,0,6.585-1.415,82.188,82.188,0,0,0,11.873-7.38,33.971,33.971,0,0,0,12.025-17.433c2.216-7.221-.033-14.881-7.038-16.886a72.24,72.24,0,0,0-12.542-2.377C427.85,305.218,423.665,303.978,420.96,298.921Z" transform="translate(436.986 71.671)" fill="#b2ba91"/>
    <path id="Path_6" data-name="Path 6" d="M399.376,252.169c2.223-5.006,4.067-8.964,5.739-13a8.81,8.81,0,0,1,5.939-5.526c3.711-1.006,7.176-.462,9.486,3.021,2.5,3.771,4.775,7.7,7.323,11.851,5.974-1.832,12.142-4.1,18.688-2.441,1.175.3,2.15,1.415,3.916,2.639-1.906.586-2.863.973-3.853,1.171a32.835,32.835,0,0,0-11.489,4.742c-8.011,5.128-14.668,3.063-19.176-5.555-.506-.968-1.008-1.939-1.879-3.611-.891,1.788-1.573,3.069-2.174,4.386-1.239,2.714-2.4,5.466-3.66,8.171-3.343,7.189-12.031,7.945-16.316,1.246a86.019,86.019,0,0,1-4.988-10.112c-.855-1.826-1.548-3.731-2.641-6.4-.662,1.712-1.111,2.63-1.375,3.6-1.817,6.683-3.594,13.375-5.388,20.065-.244.911-.5,1.821-.773,2.723-1.057,3.458-3.574,5.042-6.914,5.326a6.47,6.47,0,0,1-7.007-4.315,37.772,37.772,0,0,1-1.914-6.3c-1.681-7.842-3.256-15.711-5.091-24.644-.746,2.019-1.2,3.067-1.524,4.156q-3.645,12.2-7.238,24.418a7.939,7.939,0,0,1-6.563,5.9c-4.016.817-7.314-.489-8.6-4.453-1.83-5.659-3-11.545-4.389-17.348a37.561,37.561,0,0,0-2.59-8.362c-.675,2.228-1.386,4.444-2.017,6.685-1.024,3.636-1.934,7.3-3,10.925-1.2,4.089-2.914,5.544-6.9,5.786-3.714.224-7.174-.3-8.929-4.349q-3.185-7.349-6.354-14.71c-.6-1.395-1.233-2.776-2.179-4.9-1.775,4.12-3.134,7.454-4.642,10.714a21.7,21.7,0,0,1-2.807,4.866,8.653,8.653,0,0,1-13.941-.871c-1.3-1.954-2.37-4.064-3.556-6.1-1.091-1.866-2.2-3.722-3.44-5.824-2.141,1.2-4.044,2.186-5.859,3.314-5.553,3.458-11.445,3.24-17.453,1.766a5.726,5.726,0,0,1-2.488-1.19,3.208,3.208,0,0,1-1.115-2.3,2.863,2.863,0,0,1,1.79-1.781,14.675,14.675,0,0,1,4.569-.6,18.107,18.107,0,0,0,11.3-3.543,32.573,32.573,0,0,1,5.277-2.947c5.715-2.561,11.529-.484,14.625,5.12.906,1.639,1.772,3.3,3.056,5.7.884-1.728,1.508-2.856,2.052-4.025,1.521-3.269,2.732-6.727,4.571-9.795a9.057,9.057,0,0,1,15.474-.16c2.323,3.687,3.978,7.816,5.9,11.765.74,1.526,1.379,3.1,2.421,5.461.615-2.117,1.039-3.389,1.353-4.691,1.55-6.428,3.063-12.862,4.609-19.292a23.45,23.45,0,0,1,.931-3.165c1.386-3.478,4.184-5.02,7.643-5.171,3.123-.135,5.313,1.726,6.41,4.569a58.874,58.874,0,0,1,2.523,8.566c1.473,6.734,2.77,13.508,4.373,21.437.8-1.939,1.246-2.807,1.53-3.727q3.771-12.167,7.5-24.349a7.61,7.61,0,0,1,6.747-5.628c4.24-.6,6.985.669,8.518,4.777a88.533,88.533,0,0,1,2.95,11.392c1.075,4.749,2.012,9.53,3.252,15.456.742-2.2,1.175-3.312,1.493-4.458,1.386-5,2.739-10.012,4.1-15.021a6.9,6.9,0,0,1,7.116-5.555c3.756-.076,7.143.826,8.846,4.715,1.954,4.458,3.776,8.977,5.644,13.475C397.535,247.587,398.225,249.329,399.376,252.169Z" transform="translate(259.237 0)" fill="#b2ba91"/>
    <path id="Path_7" data-name="Path 7" d="M365.018,319.348c0-3.58.1-7.165-.031-10.741a76.531,76.531,0,0,0-.746-7.958,9.722,9.722,0,0,1,2.807-8.737,14.267,14.267,0,0,1,18.648-1.159,9.037,9.037,0,0,1,3.434,10.186,98.816,98.816,0,0,0-3.072,21.986,65.182,65.182,0,0,0,2.046,19.765c2,7.416-1.142,12.526-8.553,14.066a13.365,13.365,0,0,1-8.447-1.035,6.542,6.542,0,0,1-3.916-4.393,53.622,53.622,0,0,1-1.837-8.982c-.537-7.645-.737-15.316-1.073-22.979Z" transform="translate(410.489 82.574)" fill="#b2ba91"/>
    <path id="Path_8" data-name="Path 8" d="M376.156,296.925a12.777,12.777,0,0,1-9.67-3.727c-4.02-3.971-4.578-9.633-.7-13.7a45.213,45.213,0,0,1,10.594-8.418,11.527,11.527,0,0,1,16.693,7.551,8.4,8.4,0,0,1-1.344,6.914c-1.606,2.265-3.3,4.475-5.08,6.605A12.765,12.765,0,0,1,376.156,296.925Z" transform="translate(409.321 60.412)" fill="#b2ba91"/>
    <path id="Path_9" data-name="Path 9" d="M78.357,244.626c14.75-.235,29.033-.662,42.874,3.876a67.544,67.544,0,0,1,9.093,3.714c13.424,6.707,21.226,17.913,24.185,32.651,1.044,5.206,1.308,10.581,1.823,15.889.175,1.826.029,3.682.029,5.952,2.559.1,4.6.2,6.639.24,2.077.038,4.153.009,6.687.009.6-4.6.229-8.966.3-13.3.067-4.278.013-8.56.016-12.84V253.853c1.952,1.39,3.1,2.163,4.207,3,21.741,16.5,35.792,38.161,42.6,64.965,2.51,9.881,2.732,19.807,2.63,29.824-.058,5.6.1,11.332-.973,16.775-8.344,42.508-32.851,71.259-72.141,87.066-20.891,8.4-42.368,8.666-64.1,4.111-1.266-.267-2.505-.68-3.856-1.051v-77.1c22.925-.671,45.511-1.33,68.458-2V364.8c-1.657,0-3.18.076-4.7-.013-8.224-.475-16.524-.433-24.653-1.606-18.354-2.65-30.514-13.242-35.834-31.483-3.562-12.218-5.746-24.724-5.426-37.533.369-14.83.966-29.655,1.506-44.48C77.78,248.1,78.111,246.528,78.357,244.626Z" transform="translate(58.927 29.664)" fill="#b2ba91"/>
    <path id="Path_10" data-name="Path 10" d="M86.48,433.933c-31.123-24.091-46.786-56.1-46.339-96.179.24-21.611,7.418-41.084,18.559-59.183,6.763-10.985,15.687-19.867,26.072-28.211a53.68,53.68,0,0,1,2.265,13.868c.229,14.843.584,29.686.622,44.529.091,35.718.029,71.437.029,107.155v17.564Z" transform="translate(14.905 36.826)" fill="#b2ba91"/>
    <g id="Group_1" data-name="Group 1" transform="translate(510.616 238.377)">
      <path id="Path_11" data-name="Path 11" d="M429.417,228.384H340.2c-.08,5.295-.182,10.592-.255,15.889h89.469a124.986,124.986,0,1,1,0,249.973H422.49c0,5.3-.029,10.6-.169,15.889h7.1c77.68,0,140.877-63.2,140.877-140.877S507.1,228.384,429.417,228.384Z" transform="translate(-129.632 -228.384)" fill="#b2ba91"/>
      <path id="Path_12" data-name="Path 12" d="M308.855,348.827h-63.6v14.245h63.212C308.515,358.324,308.688,353.58,308.855,348.827Z" transform="translate(-245.254 -81.322)" fill="#b2ba91"/>
    </g>
    <g id="Group_2" data-name="Group 2" transform="translate(592.758 476.121)">
      <path id="Path_13" data-name="Path 13" d="M282.238,336.112h21.08v46.719H320.79v16.62H282.238Z" transform="translate(-282.238 -334.591)" fill="#b2ba91"/>
      <path id="Path_14" data-name="Path 14" d="M324.262,336.112h15.194l24.025,63.339H343.538l-2.088-5.7H322.267l-2.09,5.7h-19.94Zm11.869,43.681-4.273-11.109-4.273,11.109Z" transform="translate(-260.261 -334.591)" fill="#b2ba91"/>
      <path id="Path_15" data-name="Path 15" d="M329.353,336.112h24.784a32.546,32.546,0,0,1,8.689,1.091,19.619,19.619,0,0,1,6.743,3.229,14.887,14.887,0,0,1,4.369,5.317A16.7,16.7,0,0,1,375.5,353.2a15.523,15.523,0,0,1-.76,5.175,19.978,19.978,0,0,1-1.615,3.56,11.771,11.771,0,0,1-2.374,2.85,16.049,16.049,0,0,1,3.8,3.418,20.5,20.5,0,0,1,2.612,4.557,17.048,17.048,0,0,1,1.186,6.743,20.455,20.455,0,0,1-1.615,8.262,17.637,17.637,0,0,1-4.6,6.314,20.35,20.35,0,0,1-7.314,3.989,31.665,31.665,0,0,1-9.637,1.377h-25.83Zm26.59,19.276q0-4.368-4.748-4.369h-2.279v8.735h2.279Q355.942,359.755,355.943,355.388Zm-4.748,29.153q7.216,0,7.218-5.508t-7.218-5.508h-2.279v11.016Z" transform="translate(-224.71 -334.591)" fill="#b2ba91"/>
      <path id="Path_16" data-name="Path 16" d="M352.461,380.629a31.289,31.289,0,0,0,4.369,1.046,34.278,34.278,0,0,0,4.32.757,41.588,41.588,0,0,0,4.891.286q4.368,0,4.369-3.229a3.617,3.617,0,0,0-1.33-2.516,40.559,40.559,0,0,0-3.372-2.85q-2.042-1.566-4.369-3.465a31.455,31.455,0,0,1-4.367-4.369,22.725,22.725,0,0,1-3.372-5.555,17.737,17.737,0,0,1-1.33-7.076,18.209,18.209,0,0,1,1.617-7.88,15.836,15.836,0,0,1,4.462-5.7,20.074,20.074,0,0,1,6.694-3.465,27.735,27.735,0,0,1,8.216-1.188,44.146,44.146,0,0,1,4.557.24q2.279.236,4.082.426,2.089.283,4.084.569v17.759c-.509-.062-1.077-.127-1.71-.191-.506-.062-1.077-.127-1.708-.189s-1.3-.1-1.995-.1q-.57,0-1.424.047a8.765,8.765,0,0,0-1.617.238,3.33,3.33,0,0,0-1.328.664,1.636,1.636,0,0,0-.569,1.33c0,.509.426,1.139,1.281,1.9s1.9,1.648,3.134,2.659,2.594,2.183,4.082,3.514a28.528,28.528,0,0,1,4.084,4.557,26.57,26.57,0,0,1,3.132,5.795,19.4,19.4,0,0,1,1.284,7.216,22.737,22.737,0,0,1-1.33,7.833,16.652,16.652,0,0,1-4.131,6.363A19.716,19.716,0,0,1,380,400.334a30.65,30.65,0,0,1-10.35,1.566,63.108,63.108,0,0,1-6.694-.331q-3.088-.333-5.462-.808a45.3,45.3,0,0,1-5.033-1.139Z" transform="translate(-196.728 -335.427)" fill="#b2ba91"/>
    </g>
  </g>
</svg>
