<svg xmlns="http://www.w3.org/2000/svg" width="250" height="99.491" viewBox="0 0 250 99.491">
  <g id="Group_3" data-name="Group 3" transform="translate(-27.924 -220.2)">
    <path id="Path_1" data-name="Path 1" d="M153.81,228.472v4.091h-70.1c12.725,7.929,20.037,19.18,19.879,34.53-.157,15.284-7.613,26.408-20.639,34.09h58.722v4.1h-1.392q-35.606,0-71.211,0a65.2,65.2,0,0,1-7.594-.311,37.59,37.59,0,0,1-17.207-6.523,36.8,36.8,0,0,1-14.988-21.573,38.36,38.36,0,0,1,28.429-47.657,36.537,36.537,0,0,1,10.332-.833c1.105.068,2.215.08,3.323.081q40.485.006,80.97,0ZM65.654,233.5c-15.857-.48-32.676,13-32.627,33.437.045,18.716,14.927,33.124,32.422,33.152,20.086.031,33.141-16.691,33.136-33.271C98.578,248.171,83.079,233.093,65.654,233.5Z" transform="translate(0 -3.199)" fill="#ccc079"/>
    <path id="Path_2" data-name="Path 2" d="M199.048,279.109c-2.343,1.159-4.514,2.207-6.661,3.3-2.892,1.475-5.75,3.02-8.65,4.478a97.659,97.659,0,0,0-12.2,6.972,54.156,54.156,0,0,0-5.85,4.7c-3.342,3.1-7.055,1.349-9.039-.974a1.55,1.55,0,0,1-.127-2.024,20.387,20.387,0,0,1,1.578-2.1,65.212,65.212,0,0,0,7.218-9.884c-.356.118-.714.229-1.067.354a5.829,5.829,0,0,1-5.21-.42,3.816,3.816,0,0,1-1.846-2.381,3.331,3.331,0,0,1,1.382-3.527c.553-.424,1.283-.57,1.67-1.287.13-.241.674-.271,1.039-.347,2.648-.553,5.3-1.093,7.948-1.638a18.132,18.132,0,0,1,1.989-.393,2.129,2.129,0,0,0,1.715-1.109c.95-1.483,1.955-2.929,2.972-4.365a92.293,92.293,0,0,0,6.514-10.687,72.475,72.475,0,0,1,4.06-6.8,10.933,10.933,0,0,1,7.789-4.794,8.72,8.72,0,0,1,6.124,1.47,1.751,1.751,0,0,1,.6.516,17.526,17.526,0,0,1,1.922,3.238,14.076,14.076,0,0,1,.634,4.328c.015,3.9-.005,7.8-.012,11.7,0,.456,0,.913,0,1.332.688.33,1.282.568,1.832.887a3.309,3.309,0,0,1,1.308,4.738,4.4,4.4,0,0,1-2.16,2.106c-.378.164-.742.358-1.18.572-.045,1.643-.086,3.3-.138,4.951-.144,4.635.065,9.26.289,13.888a120.6,120.6,0,0,0,1.383,13.113,47.517,47.517,0,0,0,5.825,16.667,2.73,2.73,0,0,1-.865,4.011,5.236,5.236,0,0,1-5.572.3,3.3,3.3,0,0,1-1.646-2.1,65.792,65.792,0,0,1-2.016-9.835c-.935-6.137-.877-12.309-.971-18.483-.09-5.944-.245-11.887-.385-17.83C199.228,280.935,199.128,280.132,199.048,279.109Zm-17.831-7.466.19.226,16.437-3.116a2.093,2.093,0,0,0,.039-.424c-.316-2.018-.563-4.051-.978-6.048-.431-2.07-1-4.111-1.566-6.149a11.6,11.6,0,0,0-.869-1.787C189.457,259.817,185.817,266.118,181.217,271.643Zm-9.239,14.3c2.487-.688,14.655-7.394,15.524-8.344-1.158.237-2.26.441-3.351.689-2.63.6-5.259,1.209-7.881,1.845a1.82,1.82,0,0,0-1.061.557C174.091,282.413,173.046,284.186,171.978,285.943Z" transform="translate(-51.305 -10.962)" fill="#ccc079"/>
    <path id="Path_3" data-name="Path 3" d="M324.909,273.284c.005-.3,0-.6,0-.9-.037-5.506-.153-11.012-.082-16.517.023-1.771.11-3.54.218-5.31a11.35,11.35,0,0,0-.5-2.733,1.992,1.992,0,0,0-2-.981,2.725,2.725,0,0,0-1.776.819c-.01.012-.021.023-.031.035h0a2.656,2.656,0,0,0-.719,1.882,3.317,3.317,0,0,1-.42,2.267c.222,1.958.441,3.916.643,5.876.386,3.758.727,7.522,1.076,11.284.1,1.069.16,2.143.241,3.254a2.528,2.528,0,0,1-.388-.075,11.1,11.1,0,0,0-8.135.122,24.128,24.128,0,0,0-7.257,4.191c-1.705,1.381-3.15,3.05-4.709,4.595a21.245,21.245,0,0,0-3.208,4.408,6.589,6.589,0,0,0,1.059,7.9,3,3,0,0,0,2.494.934,12.845,12.845,0,0,0,4.454-1.238c3.412-1.709,6.805-3.462,10.195-5.22a3.268,3.268,0,0,0,1.737-3.707c-.324-1.934-1.7-2.736-3.4-1.951-1.037.481-2.071.976-3.076,1.527a38.058,38.058,0,0,1-6.617,2.381,3.05,3.05,0,0,1,.221-.468,17.622,17.622,0,0,1,5.672-5.018,10.994,10.994,0,0,1,5.715-1.474,5.566,5.566,0,0,1,2.719.72,1.235,1.235,0,0,1,.664,1.092,3.829,3.829,0,0,0,2.816,3.881c.053.016.093.084.187.174.192,2.361.4,4.771.574,7.184a1.54,1.54,0,0,0,.674,1.4c.635-.717,1.194-1.388,1.8-2.01a.965.965,0,0,0,.262-.883c-.211-2.011-.39-4.025-.6-6.035a2.316,2.316,0,0,1,.291-1.507,6.177,6.177,0,0,0,.617-1.652,7.346,7.346,0,0,0-.76-4.905A7.257,7.257,0,0,1,324.909,273.284Zm-21.855,16.638-.261-.091q.124-.444.248-.89l.166.038Q303.13,289.451,303.054,289.922Z" transform="translate(-107.432 -10.73)" fill="#ccc079"/>
    <path id="Path_4" data-name="Path 4" d="M253.068,300.516c.5-.365.868-.6,1.2-.882a22.651,22.651,0,0,0,4.245-5.229c1.806-2.879,3.447-5.867,5.161-8.806a15.663,15.663,0,0,1,1.192-1.947,2.416,2.416,0,0,1,3.216-.737c.805.378,1.569.851,2.341,1.3a.766.766,0,0,1,.324.375,6.4,6.4,0,0,1,.576,3.15,49.93,49.93,0,0,0-.484,8.358,13.274,13.274,0,0,0,1.2,5.476,6.556,6.556,0,0,1,.476,1.482,3.409,3.409,0,0,1-4.46,3.706,2.8,2.8,0,0,1-1.8-1.745,14.994,14.994,0,0,1-1.133-5.4c-.012-1.223.011-2.446.011-3.669,0-.264-.03-.528-.058-1-.294.388-.483.616-.648.86-1.321,1.955-2.587,3.952-3.973,5.858-1.078,1.483-2.264,2.89-3.474,4.265a6.084,6.084,0,0,1-4.406,1.96,4.475,4.475,0,0,1-3.677-1.789,8.823,8.823,0,0,1-2.017-5.063c-.151-2.015-.07-4.046-.118-6.07-.039-1.641-.108-3.281-.184-4.92a1.911,1.911,0,0,0-.65-1.358,3.642,3.642,0,0,1-.583-4.5,3.476,3.476,0,0,1,4.125-1.7c1.938.57,3.043,1.858,3.279,4.329a40.6,40.6,0,0,1-.082,5.646,31.412,31.412,0,0,0,.107,6.483C252.85,299.393,252.942,299.837,253.068,300.516Z" transform="translate(-86.593 -24.867)" fill="#ccc079"/>
    <path id="Path_5" data-name="Path 5" d="M395.708,281.409c.922-1.629,2.27-1.669,3.675-1.388a21.427,21.427,0,0,1,5.286,1.389,8.377,8.377,0,0,1,4.874,5.578,10.165,10.165,0,0,1,.113,4.208c-.546,3.549-2.493,5.93-4.651,8.2a16.924,16.924,0,0,1-7.906,4.824,8.6,8.6,0,0,1-6.5-.8,8.038,8.038,0,0,1-3.523-4.029,14.335,14.335,0,0,1-1.257-6.207,27.969,27.969,0,0,1,1.252-8.666,15.146,15.146,0,0,1,2.478-4.363,3.493,3.493,0,0,1,5.645.387C395.362,280.793,395.5,281.065,395.708,281.409Zm-.306,2.951a6.61,6.61,0,0,1-1.08.92,3.787,3.787,0,0,0-1.7,2.132,15.218,15.218,0,0,0-1.118,6.84c.186,2.455,1.394,4.547,4.088,4.367a4.55,4.55,0,0,0,1.8-.386,22.425,22.425,0,0,0,3.239-2.014,9.268,9.268,0,0,0,3.281-4.756c.6-1.97-.009-4.06-1.92-4.607a19.707,19.707,0,0,0-3.422-.648A3.555,3.555,0,0,1,395.4,284.36Z" transform="translate(-142.94 -23.493)" fill="#ccc079"/>
    <path id="Path_6" data-name="Path 6" d="M283.654,228.922c.607-1.366,1.109-2.446,1.566-3.546a2.4,2.4,0,0,1,1.62-1.508,2.157,2.157,0,0,1,2.588.824c.683,1.029,1.3,2.1,2,3.233,1.63-.5,3.313-1.118,5.1-.666.321.081.587.386,1.068.72-.52.16-.781.265-1.051.319a8.957,8.957,0,0,0-3.134,1.294c-2.186,1.4-4,.836-5.232-1.515-.138-.264-.275-.529-.513-.985-.243.488-.429.837-.593,1.2-.338.74-.656,1.491-1,2.229a2.461,2.461,0,0,1-4.451.34,23.472,23.472,0,0,1-1.361-2.759c-.233-.5-.422-1.018-.72-1.745-.181.467-.3.717-.375.982-.5,1.823-.98,3.649-1.47,5.474-.067.248-.135.5-.211.743a1.972,1.972,0,0,1-1.886,1.453,1.765,1.765,0,0,1-1.912-1.177,10.3,10.3,0,0,1-.522-1.719c-.459-2.14-.888-4.286-1.389-6.724-.2.551-.327.837-.416,1.134q-.994,3.329-1.975,6.662a2.166,2.166,0,0,1-1.791,1.611,1.83,1.83,0,0,1-2.345-1.215c-.5-1.544-.817-3.15-1.2-4.733a10.246,10.246,0,0,0-.707-2.281c-.184.608-.378,1.212-.55,1.824-.279.992-.528,1.993-.819,2.981a1.8,1.8,0,0,1-1.881,1.578,2.149,2.149,0,0,1-2.436-1.186q-.869-2.005-1.734-4.013c-.165-.381-.336-.757-.594-1.338-.484,1.124-.855,2.034-1.266,2.923a5.921,5.921,0,0,1-.766,1.328,2.361,2.361,0,0,1-3.8-.238c-.354-.533-.647-1.109-.97-1.663-.3-.509-.6-1.016-.939-1.589-.584.328-1.1.6-1.6.9a5.9,5.9,0,0,1-4.761.482,1.562,1.562,0,0,1-.679-.325.875.875,0,0,1-.3-.627.781.781,0,0,1,.488-.486,4,4,0,0,1,1.246-.165,4.94,4.94,0,0,0,3.084-.966,8.887,8.887,0,0,1,1.44-.8,2.986,2.986,0,0,1,3.99,1.4c.247.447.484.9.834,1.554.241-.471.411-.779.56-1.1a28.476,28.476,0,0,1,1.247-2.672,2.471,2.471,0,0,1,4.222-.044,32.905,32.905,0,0,1,1.609,3.21c.2.416.376.846.66,1.49.168-.577.284-.925.369-1.28.423-1.754.836-3.509,1.257-5.263a6.4,6.4,0,0,1,.254-.863,2.177,2.177,0,0,1,2.085-1.411,1.749,1.749,0,0,1,1.749,1.246,16.061,16.061,0,0,1,.688,2.337c.4,1.837.756,3.685,1.193,5.849.219-.529.34-.766.417-1.017q1.029-3.319,2.045-6.643a2.076,2.076,0,0,1,1.841-1.535,1.876,1.876,0,0,1,2.324,1.3,24.161,24.161,0,0,1,.8,3.108c.293,1.3.549,2.6.887,4.217.2-.6.321-.9.407-1.216.378-1.365.747-2.732,1.118-4.1A1.883,1.883,0,0,1,279,222.237a2.276,2.276,0,0,1,2.413,1.286c.533,1.216,1.03,2.449,1.54,3.676C283.152,227.672,283.34,228.147,283.654,228.922Z" transform="translate(-84.928 0)" fill="#ccc079"/>
    <path id="Path_7" data-name="Path 7" d="M364.359,296.427c0-.977.026-1.955-.008-2.93a20.885,20.885,0,0,0-.2-2.171,2.652,2.652,0,0,1,.766-2.384,3.892,3.892,0,0,1,5.087-.316,2.466,2.466,0,0,1,.937,2.779,26.961,26.961,0,0,0-.838,6,17.782,17.782,0,0,0,.558,5.392,2.789,2.789,0,0,1-2.333,3.837,3.647,3.647,0,0,1-2.3-.282,1.785,1.785,0,0,1-1.068-1.2,14.625,14.625,0,0,1-.5-2.45c-.147-2.086-.2-4.179-.293-6.269Z" transform="translate(-134.389 -27.032)" fill="#ccc079"/>
    <path id="Path_8" data-name="Path 8" d="M366.7,277.111a3.486,3.486,0,0,1-2.638-1.017,2.571,2.571,0,0,1-.19-3.738,12.335,12.335,0,0,1,2.89-2.3,3.145,3.145,0,0,1,4.554,2.06,2.29,2.29,0,0,1-.367,1.886c-.438.618-.9,1.221-1.386,1.8A3.483,3.483,0,0,1,366.7,277.111Z" transform="translate(-134.012 -19.743)" fill="#ccc079"/>
    <path id="Path_9" data-name="Path 9" d="M76.778,244.531c4.024-.064,7.921-.181,11.7,1.057a18.423,18.423,0,0,1,2.481,1.013,12.057,12.057,0,0,1,6.6,8.908,43.363,43.363,0,0,1,.5,4.335c.048.5.008,1,.008,1.624.7.026,1.254.055,1.811.065s1.133,0,1.824,0a30.3,30.3,0,0,0,.081-3.629c.018-1.167,0-2.335,0-3.5v-7.356c.533.379.846.59,1.148.819a30.3,30.3,0,0,1,12.339,25.86A25.275,25.275,0,0,1,115,278.3c-2.277,11.6-8.962,19.441-19.681,23.753a29.552,29.552,0,0,1-17.487,1.122c-.345-.073-.683-.185-1.052-.287V281.856l18.677-.545v-3.995c-.452,0-.868.021-1.281,0-2.244-.13-4.508-.118-6.726-.438-5.007-.723-8.325-3.613-9.776-8.589a33.506,33.506,0,0,1-1.48-10.24c.1-4.046.264-8.09.411-12.135C76.62,245.478,76.71,245.049,76.778,244.531Z" transform="translate(-19.018 -9.574)" fill="#ccc079"/>
    <path id="Path_10" data-name="Path 10" d="M52.777,300.443c-8.491-6.573-12.764-15.3-12.642-26.24A31.135,31.135,0,0,1,45.2,258.057a30.363,30.363,0,0,1,7.113-7.7,14.645,14.645,0,0,1,.618,3.783c.062,4.049.159,8.1.17,12.148.025,9.745.008,19.489.008,29.234v4.792Z" transform="translate(-4.81 -12.162)" fill="#ccc079"/>
    <g id="Group_1" data-name="Group 1" transform="translate(157.703 225.159)">
      <path id="Path_11" data-name="Path 11" d="M364.357,228.384H340.018c-.022,1.445-.05,2.89-.07,4.335h24.409a34.1,34.1,0,1,1,0,68.2h-1.89c0,1.446-.008,2.891-.046,4.335h1.936a38.434,38.434,0,1,0,0-76.868Z" transform="translate(-282.569 -228.384)" fill="#ccc079"/>
      <path id="Path_12" data-name="Path 12" d="M262.606,348.827H245.254v3.886H262.5C262.513,351.418,262.56,350.124,262.606,348.827Z" transform="translate(-245.254 -275.846)" fill="#ccc079"/>
    </g>
    <g id="Group_2" data-name="Group 2" transform="translate(180.54 289.26)">
      <path id="Path_13" data-name="Path 13" d="M282.238,336.112h5.751v12.746h4.767v4.534H282.238Z" transform="translate(-282.238 -335.697)" fill="#ccc079"/>
      <path id="Path_14" data-name="Path 14" d="M306.791,336.112h4.145l6.554,17.28H312.05l-.57-1.554h-5.233l-.57,1.554h-5.44Zm3.238,11.917L308.864,345l-1.166,3.031Z" transform="translate(-289.331 -335.697)" fill="#ccc079"/>
      <path id="Path_15" data-name="Path 15" d="M329.353,336.112h6.762a8.879,8.879,0,0,1,2.37.3,5.354,5.354,0,0,1,1.84.881,4.061,4.061,0,0,1,1.192,1.451,4.557,4.557,0,0,1,.427,2.034,4.235,4.235,0,0,1-.207,1.412,5.45,5.45,0,0,1-.44.971,3.211,3.211,0,0,1-.648.777,4.38,4.38,0,0,1,1.037.933,5.594,5.594,0,0,1,.713,1.243,4.651,4.651,0,0,1,.324,1.84,5.58,5.58,0,0,1-.441,2.254,4.811,4.811,0,0,1-1.256,1.723,5.552,5.552,0,0,1-2,1.088,8.638,8.638,0,0,1-2.629.376h-7.047Zm7.254,5.259q0-1.192-1.3-1.192h-.622v2.383h.622Q336.607,342.562,336.607,341.371Zm-1.3,7.954q1.969,0,1.969-1.5t-1.969-1.5h-.622v3.005Z" transform="translate(-300.804 -335.697)" fill="#ccc079"/>
      <path id="Path_16" data-name="Path 16" d="M352.322,347.759a8.538,8.538,0,0,0,1.192.285,9.353,9.353,0,0,0,1.179.207,11.352,11.352,0,0,0,1.334.078q1.192,0,1.192-.881a.987.987,0,0,0-.363-.686,11.049,11.049,0,0,0-.92-.777q-.557-.427-1.192-.945a8.582,8.582,0,0,1-1.191-1.192,6.2,6.2,0,0,1-.92-1.515,4.839,4.839,0,0,1-.363-1.931,4.968,4.968,0,0,1,.441-2.15,4.321,4.321,0,0,1,1.217-1.555,5.477,5.477,0,0,1,1.826-.945,7.567,7.567,0,0,1,2.241-.324,12.052,12.052,0,0,1,1.243.065l1.114.116q.57.077,1.114.155v4.845c-.139-.017-.294-.035-.467-.052-.138-.017-.294-.035-.466-.052s-.354-.026-.544-.026q-.155,0-.388.013a2.391,2.391,0,0,0-.441.065.909.909,0,0,0-.362.181.446.446,0,0,0-.155.363c0,.139.116.311.35.518s.518.45.855.725.708.6,1.114.959a7.783,7.783,0,0,1,1.114,1.243,7.25,7.25,0,0,1,.854,1.581,5.292,5.292,0,0,1,.35,1.969,6.2,6.2,0,0,1-.363,2.137,4.543,4.543,0,0,1-1.127,1.736,5.379,5.379,0,0,1-1.956,1.166,8.362,8.362,0,0,1-2.824.427,17.217,17.217,0,0,1-1.826-.09q-.843-.091-1.49-.221a12.364,12.364,0,0,1-1.373-.311Z" transform="translate(-309.835 -335.427)" fill="#ccc079"/>
    </g>
  </g>
</svg>
