<svg xmlns="http://www.w3.org/2000/svg" width="170.408" height="152.741" viewBox="0 0 170.408 152.741">
  <g id="Group_289" data-name="Group 289" transform="translate(-842.374 -408.67)">
    <path id="Path_20" data-name="Path 20" d="M341.259,266.639c5.3-18.54,10.4-36.308,15.427-54.1a5.621,5.621,0,0,1,3.675-4.271c9.476-3.6,19.117-6.32,29.349-6.32,9.659,0,18.343,3.207,26.433,8.248,4.725,2.945,4.775,2.991,3.221,8.449q-7.257,25.469-14.612,50.912c-.045.158-.229.276-.621.722C384.282,254.886,363.1,257.443,341.259,266.639Z" transform="translate(519.969 206.718)" fill="#fff"/>
    <path id="Path_21" data-name="Path 21" d="M405.512,213.611c20.323,15.471,41.37,12.991,63.194,3.915-1.355,4.937-2.534,9.419-3.815,13.873q-5.918,20.6-11.953,41.169a4.146,4.146,0,0,1-2.043,2.4c-10.246,4.259-20.775,7.217-32.038,6.87-8.59-.264-16.332-3.095-23.618-7.392-2.045-1.206-4.9-2.316-5.6-4.152-.69-1.808.818-4.5,1.472-6.768q5.463-19,10.979-37.991C403.177,221.766,404.252,218,405.512,213.611Z" transform="translate(544.074 212.549)" fill="#fff"/>
    <path id="Path_22" data-name="Path 22" d="M392.8,258.42c20.176,15.32,41.262,12.941,63.055,3.7-2.309,8.228-4.433,15.942-6.642,23.633q-4.586,15.974-9.305,31.91a2.967,2.967,0,0,1-1.338,1.811c-8.99,3.491-18.079,6.317-27.879,6.9C398.32,327.1,387.7,323,377.837,316.156a3,3,0,0,1-1.032-2.544c5-17.8,10.109-35.561,15.208-53.33C392.135,259.859,392.355,259.464,392.8,258.42Z" transform="translate(537.726 234.957)" fill="#fff"/>
    <path id="Path_23" data-name="Path 23" d="M391.656,314.653c-2.666-1.593-5.139-3.132-7.668-4.572-13.075-7.446-26.85-7.923-41.019-3.966-3.615,1.011-7.143,2.333-10.733,3.438a27.4,27.4,0,0,1-3.546.549c1.511-5.3,2.859-10.013,4.2-14.732,3.656-12.853,7.259-25.722,11.044-38.537a5.643,5.643,0,0,1,2.858-3.171c9.526-4.025,19.375-6.726,29.834-6.788,11.23-.066,20.911,4.263,29.946,10.4a3.144,3.144,0,0,1,.746,2.759c-2.8,10.054-5.744,20.068-8.635,30.1C396.355,298.219,394.046,306.312,391.656,314.653Z" transform="translate(513.684 229.183)" fill="#fff"/>
  </g>
</svg>
