<svg xmlns="http://www.w3.org/2000/svg" width="139.405" height="170.637" viewBox="0 0 139.405 170.637">
  <g id="Group_288" data-name="Group 288" transform="translate(-587.381 -394.344)">
    <path id="Path_19" data-name="Path 19" d="M254.513,236.253c-13.411,8.579-20.023,19.98-18.99,35.255,1.032,15.259,9.3,25.58,23.061,32.63-2.061,4.728-3.879,9.532-6.194,14.081a88.949,88.949,0,0,1-17.914,24.755c-6.573,6.212-14.2,7.317-22.59,4.653a53.651,53.651,0,0,1-5.7-2.1c-9.178-4.106-18.379-4.064-27.659-.375-2.651,1.055-5.352,1.977-8.027,2.97-7.934,2.942-14.668.534-20.5-4.917-9.508-8.879-16.465-19.594-21.7-31.429-6.507-14.717-9.971-30.1-8.935-46.255,1.166-18.165,10.249-35.657,28.62-42.843,9.433-3.689,18.7-3.02,28.043.485,16.024,6.009,11.642,5.8,27.551-.069,14.188-5.229,27.719-4.691,40.438,3.711C247.767,229.28,250.8,232.856,254.513,236.253Z" transform="translate(468.202 215.598)" fill="#fff"/>
    <path id="Path_24" data-name="Path 24" d="M165.68,231.859a29.052,29.052,0,0,1,2.058-15.821c5.568-12.688,15.016-20.7,28.725-23.361,3.276-.636,3.41-.368,3.413,2.99.012,15.631-11.7,31.619-25.887,35.128A72.174,72.174,0,0,1,165.68,231.859Z" transform="translate(491.312 201.942)" fill="#fff"/>
  </g>
</svg>
